<?xml version="1.0" encoding="UTF-8"?>
<svg width="200" height="80" viewBox="0 0 200 80" fill="none" xmlns="http://www.w3.org/2000/svg">
  <!-- Star Sunglasses -->
  <!-- Left Star Lens -->
  <polygon points="55,15 60,30 75,30 63,40 68,55 55,45 42,55 47,40 35,30 50,30" 
           fill="#FFD700" fill-opacity="0.5"/>
  <polygon points="55,15 60,30 75,30 63,40 68,55 55,45 42,55 47,40 35,30 50,30" 
           stroke="#FFD700" stroke-width="2"/>
  
  <!-- Right Star Lens -->
  <polygon points="145,15 150,30 165,30 153,40 158,55 145,45 132,55 137,40 125,30 140,30" 
           fill="#FFD700" fill-opacity="0.5"/>
  <polygon points="145,15 150,30 165,30 153,40 158,55 145,45 132,55 137,40 125,30 140,30" 
           stroke="#FFD700" stroke-width="2"/>
  
  <!-- Bridge -->
  <path d="M75 35 Q100 30 125 35" stroke="#FFD700" stroke-width="2" fill="none"/>
  
  <!-- Left Temple -->
  <line x1="35" y1="30" x2="10" y2="25" stroke="#FFD700" stroke-width="2"/>
  
  <!-- Right Temple -->
  <line x1="165" y1="30" x2="190" y2="25" stroke="#FFD700" stroke-width="2"/>
</svg>
